HIERARCHY
ROOT Hips
{
	OFFSET -8.252563 88.092789 49.943336
	CHANNELS 6 Xposition Yposition Zposition Xrotation Yrotation Zrotation
	JOINT LeftThigh
	{
		OFFSET 5.621557 2.866440 -4.311310
		CHANNELS 6 Xposition Yposition Zposition Xrotation Yrotation Zrotation
		JOINT LeftShin
		{
			OFFSET 3.478297 -38.761547 -12.114685
			CHANNELS 6 Xposition Yposition Zposition Xrotation Yrotation Zrotation
			JOINT LeftFoot
			{
				OFFSET 0.126545 -36.930054 -17.469318
				CHANNELS 6 Xposition Yposition Zposition Xrotation Yrotation Zrotation
				JOINT LeftToe
				{
					OFFSET 4.701186 -12.892839 0.471922
					CHANNELS 6 Xposition Yposition Zposition Xrotation Yrotation Zrotation
					JOINT LeftToeTip
					{
						OFFSET 5.073774 -2.401292 4.372089
						CHANNELS 6 Xposition Yposition Zposition Xrotation Yrotation Zrotation
						End Site
						{
							OFFSET -5.057212 1.305164 -4.831739
						}
					}
				}
			}
		}
	}
	JOINT RightThigh
	{
		OFFSET -5.621558 -2.866455 4.311302
		CHANNELS 6 Xposition Yposition Zposition Xrotation Yrotation Zrotation
		JOINT RightShin
		{
			OFFSET 7.158331 -38.335041 11.853462
			CHANNELS 6 Xposition Yposition Zposition Xrotation Yrotation Zrotation
			JOINT RightFoot
			{
				OFFSET 0.220285 -39.641003 -9.877617
				CHANNELS 6 Xposition Yposition Zposition Xrotation Yrotation Zrotation
				JOINT RightToe
				{
					OFFSET 2.612350 -6.028744 12.057335
					CHANNELS 6 Xposition Yposition Zposition Xrotation Yrotation Zrotation
					JOINT RightToeTip
					{
						OFFSET 1.453042 -1.184429 6.863708
						CHANNELS 6 Xposition Yposition Zposition Xrotation Yrotation Zrotation
						End Site
						{
							OFFSET -1.455931 0.000000 -6.964546
						}
					}
				}
			}
		}
	}
	JOINT Spine1
	{
		OFFSET -2.538840 8.183296 2.130344
		CHANNELS 6 Xposition Yposition Zposition Xrotation Yrotation Zrotation
		JOINT Spine2
		{
			OFFSET -0.106750 5.572006 4.501976
			CHANNELS 6 Xposition Yposition Zposition Xrotation Yrotation Zrotation
			JOINT Spine3
			{
				OFFSET -0.188573 5.116928 5.010777
				CHANNELS 6 Xposition Yposition Zposition Xrotation Yrotation Zrotation
				JOINT Spine4
				{
					OFFSET -0.435960 7.790688 9.244507
					CHANNELS 6 Xposition Yposition Zposition Xrotation Yrotation Zrotation
					JOINT LeftShoulder
					{
						OFFSET 5.509731 10.360497 6.886551
						CHANNELS 6 Xposition Yposition Zposition Xrotation Yrotation Zrotation
						JOINT LeftArm
						{
							OFFSET 6.990612 8.532051 -6.589844
							CHANNELS 6 Xposition Yposition Zposition Xrotation Yrotation Zrotation
							JOINT LeftForeArm
							{
								OFFSET -0.359546 -15.336548 -19.263226
								CHANNELS 6 Xposition Yposition Zposition Xrotation Yrotation Zrotation
								JOINT LeftHand
								{
									OFFSET 3.797058 -24.694489 -10.538315
									CHANNELS 6 Xposition Yposition Zposition Xrotation Yrotation Zrotation
									JOINT LeftFinger1Metacarpal
									{
										OFFSET 0.952128 -3.104218 0.717697
										CHANNELS 6 Xposition Yposition Zposition Xrotation Yrotation Zrotation
										JOINT LeftFinger1Proximal
										{
											OFFSET -0.948880 -3.647713 -0.052422
											CHANNELS 6 Xposition Yposition Zposition Xrotation Yrotation Zrotation
											JOINT LeftFinger1Distal
											{
												OFFSET -0.395391 -2.742805 -0.711678
												CHANNELS 6 Xposition Yposition Zposition Xrotation Yrotation Zrotation
												JOINT LeftFinger1Tip
												{
													OFFSET -0.505010 -3.098587 -0.909401
													CHANNELS 6 Xposition Yposition Zposition Xrotation Yrotation Zrotation
													End Site
													{
														OFFSET 0.505006 3.098579 0.909405
													}
												}
											}
										}
									}
									JOINT LeftFinger2Metacarpal
									{
										OFFSET 0.431695 -2.901161 -0.404774
										CHANNELS 6 Xposition Yposition Zposition Xrotation Yrotation Zrotation
										JOINT LeftFinger2Proximal
										{
											OFFSET 0.100470 -4.626656 -2.464405
											CHANNELS 6 Xposition Yposition Zposition Xrotation Yrotation Zrotation
											JOINT LeftFinger2Medial
											{
												OFFSET -1.990765 -3.686241 -1.425308
												CHANNELS 6 Xposition Yposition Zposition Xrotation Yrotation Zrotation
												JOINT LeftFinger2Distal
												{
													OFFSET -2.096781 -1.736168 -0.037136
													CHANNELS 6 Xposition Yposition Zposition Xrotation Yrotation Zrotation
													JOINT LeftFinger2Tip
													{
														OFFSET -2.363409 -1.119179 0.529594
														CHANNELS 6 Xposition Yposition Zposition Xrotation Yrotation Zrotation
														End Site
														{
															OFFSET 2.363400 1.119164 -0.529652
														}
													}
												}
											}
										}
									}
									JOINT LeftFinger3Metacarpal
									{
										OFFSET -0.013582 -2.424370 -1.188118
										CHANNELS 6 Xposition Yposition Zposition Xrotation Yrotation Zrotation
										JOINT LeftFinger3Proximal
										{
											OFFSET -0.292131 -4.089592 -3.086746
											CHANNELS 6 Xposition Yposition Zposition Xrotation Yrotation Zrotation
											JOINT LeftFinger3Medial
											{
												OFFSET -2.514203 -3.554253 -1.122395
												CHANNELS 6 Xposition Yposition Zposition Xrotation Yrotation Zrotation
												JOINT LeftFinger3Distal
												{
													OFFSET -2.559383 -1.403343 0.523392
													CHANNELS 6 Xposition Yposition Zposition Xrotation Yrotation Zrotation
													JOINT LeftFinger3Tip
													{
														OFFSET -2.547571 -0.437202 1.242809
														CHANNELS 6 Xposition Yposition Zposition Xrotation Yrotation Zrotation
														End Site
														{
															OFFSET 2.547564 0.437202 -1.242828
														}
													}
												}
											}
										}
									}
									JOINT LeftFinger4Metacarpal
									{
										OFFSET -0.464840 -1.818008 -1.909897
										CHANNELS 6 Xposition Yposition Zposition Xrotation Yrotation Zrotation
										JOINT LeftFinger4Proximal
										{
											OFFSET -0.870580 -3.411415 -3.394688
											CHANNELS 6 Xposition Yposition Zposition Xrotation Yrotation Zrotation
											JOINT LeftFinger4Medial
											{
												OFFSET -2.579310 -3.277649 -0.781071
												CHANNELS 6 Xposition Yposition Zposition Xrotation Yrotation Zrotation
												JOINT LeftFinger4Distal
												{
													OFFSET -2.327353 -1.153633 0.861252
													CHANNELS 6 Xposition Yposition Zposition Xrotation Yrotation Zrotation
													JOINT LeftFinger4Tip
													{
														OFFSET -2.154614 -0.195053 1.555210
														CHANNELS 6 Xposition Yposition Zposition Xrotation Yrotation Zrotation
														End Site
														{
															OFFSET 2.154595 0.195023 -1.555233
														}
													}
												}
											}
										}
									}
									JOINT LeftFinger5Metacarpal
									{
										OFFSET -0.840448 -1.117714 -2.396435
										CHANNELS 6 Xposition Yposition Zposition Xrotation Yrotation Zrotation
										JOINT LeftFinger5Proximal
										{
											OFFSET -1.413510 -2.647697 -3.466747
											CHANNELS 6 Xposition Yposition Zposition Xrotation Yrotation Zrotation
											JOINT LeftFinger5Medial
											{
												OFFSET -2.054634 -2.775925 -1.010506
												CHANNELS 6 Xposition Yposition Zposition Xrotation Yrotation Zrotation
												JOINT LeftFinger5Distal
												{
													OFFSET -1.815994 -1.289940 0.392685
													CHANNELS 6 Xposition Yposition Zposition Xrotation Yrotation Zrotation
													JOINT LeftFinger5Tip
													{
														OFFSET -1.900167 -0.771187 1.050133
														CHANNELS 6 Xposition Yposition Zposition Xrotation Yrotation Zrotation
														End Site
														{
															OFFSET 1.900158 0.771202 -1.050140
														}
													}
												}
											}
										}
									}
								}
							}
						}
					}
					JOINT Neck
					{
						OFFSET -0.689050 12.313828 14.611641
						CHANNELS 6 Xposition Yposition Zposition Xrotation Yrotation Zrotation
						JOINT Head
						{
							OFFSET -1.145237 7.525696 6.269104
							CHANNELS 6 Xposition Yposition Zposition Xrotation Yrotation Zrotation
							JOINT HeadVertex
							{
								OFFSET -2.228642 12.906784 7.099289
								CHANNELS 6 Xposition Yposition Zposition Xrotation Yrotation Zrotation
								End Site
								{
									OFFSET -2.228645 12.906784 7.099289
								}
							}
						}
					}
					JOINT RightShoulder
					{
						OFFSET -3.774653 2.883545 12.749847
						CHANNELS 6 Xposition Yposition Zposition Xrotation Yrotation Zrotation
						JOINT RightArm
						{
							OFFSET -10.378578 -4.696877 5.942612
							CHANNELS 6 Xposition Yposition Zposition Xrotation Yrotation Zrotation
							JOINT RightForeArm
							{
								OFFSET 1.271999 -22.534531 9.848259
								CHANNELS 6 Xposition Yposition Zposition Xrotation Yrotation Zrotation
								JOINT RightHand
								{
									OFFSET 5.473150 -17.273109 20.173660
									CHANNELS 6 Xposition Yposition Zposition Xrotation Yrotation Zrotation
									JOINT RightFinger1Metacarpal
									{
										OFFSET 1.280636 2.109764 2.228584
										CHANNELS 6 Xposition Yposition Zposition Xrotation Yrotation Zrotation
										JOINT RightFinger1Proximal
										{
											OFFSET 0.340202 0.417580 3.730835
											CHANNELS 6 Xposition Yposition Zposition Xrotation Yrotation Zrotation
											JOINT RightFinger1Distal
											{
												OFFSET -1.167887 -0.218330 2.602745
												CHANNELS 6 Xposition Yposition Zposition Xrotation Yrotation Zrotation
												JOINT RightFinger1Tip
												{
													OFFSET -2.056322 -0.928093 2.365051
													CHANNELS 6 Xposition Yposition Zposition Xrotation Yrotation Zrotation
													End Site
													{
														OFFSET 2.056326 0.928093 -2.365036
													}
												}
											}
										}
									}
									JOINT RightFinger2Metacarpal
									{
										OFFSET 0.150452 1.624046 2.471161
										CHANNELS 6 Xposition Yposition Zposition Xrotation Yrotation Zrotation
										JOINT RightFinger2Proximal
										{
											OFFSET -1.533377 2.171448 4.519211
											CHANNELS 6 Xposition Yposition Zposition Xrotation Yrotation Zrotation
											JOINT RightFinger2Medial
											{
												OFFSET -1.307508 -0.272392 4.218903
												CHANNELS 6 Xposition Yposition Zposition Xrotation Yrotation Zrotation
												JOINT RightFinger2Distal
												{
													OFFSET -0.079306 -1.111702 2.483948
													CHANNELS 6 Xposition Yposition Zposition Xrotation Yrotation Zrotation
													JOINT RightFinger2Tip
													{
														OFFSET 0.413235 -1.599228 2.095337
														CHANNELS 6 Xposition Yposition Zposition Xrotation Yrotation Zrotation
														End Site
														{
															OFFSET -0.413292 1.599236 -2.095322
														}
													}
												}
											}
										}
									}
									JOINT RightFinger3Metacarpal
									{
										OFFSET -0.700880 1.071243 2.377083
										CHANNELS 6 Xposition Yposition Zposition Xrotation Yrotation Zrotation
										JOINT RightFinger3Proximal
										{
											OFFSET -2.239307 1.631180 4.320068
											CHANNELS 6 Xposition Yposition Zposition Xrotation Yrotation Zrotation
											JOINT RightFinger3Medial
											{
												OFFSET -1.325949 -0.365685 4.280388
												CHANNELS 6 Xposition Yposition Zposition Xrotation Yrotation Zrotation
												JOINT RightFinger3Distal
												{
													OFFSET -0.043438 -1.217682 2.703537
													CHANNELS 6 Xposition Yposition Zposition Xrotation Yrotation Zrotation
													JOINT RightFinger3Tip
													{
														OFFSET 0.508005 -1.693489 2.258286
														CHANNELS 6 Xposition Yposition Zposition Xrotation Yrotation Zrotation
														End Site
														{
															OFFSET -0.508026 1.693489 -2.258286
														}
													}
												}
											}
										}
									}
									JOINT RightFinger4Metacarpal
									{
										OFFSET -1.516529 0.455215 2.159111
										CHANNELS 6 Xposition Yposition Zposition Xrotation Yrotation Zrotation
										JOINT RightFinger4Proximal
										{
											OFFSET -2.660131 0.843758 4.016357
											CHANNELS 6 Xposition Yposition Zposition Xrotation Yrotation Zrotation
											JOINT RightFinger4Medial
											{
												OFFSET -1.281378 -0.320618 4.032539
												CHANNELS 6 Xposition Yposition Zposition Xrotation Yrotation Zrotation
												JOINT RightFinger4Distal
												{
													OFFSET -0.139799 -0.939659 2.566452
													CHANNELS 6 Xposition Yposition Zposition Xrotation Yrotation Zrotation
													JOINT RightFinger4Tip
													{
														OFFSET 0.325462 -1.327354 2.287201
														CHANNELS 6 Xposition Yposition Zposition Xrotation Yrotation Zrotation
														End Site
														{
															OFFSET -0.325499 1.327377 -2.287186
														}
													}
												}
											}
										}
									}
									JOINT RightFinger5Metacarpal
									{
										OFFSET -2.120838 -0.146118 1.783012
										CHANNELS 6 Xposition Yposition Zposition Xrotation Yrotation Zrotation
										JOINT RightFinger5Proximal
										{
											OFFSET -2.866573 0.038078 3.578804
											CHANNELS 6 Xposition Yposition Zposition Xrotation Yrotation Zrotation
											JOINT RightFinger5Medial
											{
												OFFSET -1.307396 -1.048714 3.184280
												CHANNELS 6 Xposition Yposition Zposition Xrotation Yrotation Zrotation
												JOINT RightFinger5Distal
												{
													OFFSET -0.067364 -1.194489 1.919510
													CHANNELS 6 Xposition Yposition Zposition Xrotation Yrotation Zrotation
													JOINT RightFinger5Tip
													{
														OFFSET 0.458418 -1.470741 1.713165
														CHANNELS 6 Xposition Yposition Zposition Xrotation Yrotation Zrotation
														End Site
														{
															OFFSET -0.458426 1.470726 -1.713165
														}
													}
												}
											}
										}
									}
								}
							}
						}
					}
				}
			}
		}
	}
}
MOTION
Frames: 2
Frame Time: 0.010000
7.579633 84.553871 14.821175 -36.059041 -28.699256 -22.079657 5.621557 2.866449 -4.311305 4.430990 11.302292 0.362040 3.478289 -38.761562 -12.114693 19.783086 3.182846 -11.316028 0.126554 -36.930061 -17.469307 -36.201703 -26.527580 25.524287 4.701182 -12.892830 0.471910 26.963155 -1.935738 -24.147806 5.073772 -2.401294 4.372090 -0.000000 -0.000003 -0.000000 -5.621552 -2.866459 4.311296 23.094434 16.634383 -5.939416 7.158324 -38.335060 11.853448 -11.161411 -2.117533 3.458612 0.220286 -39.640995 -9.877589 12.017251 1.556029 9.798472 2.612349 -6.028759 12.057320 6.587168 0.018161 -1.379278 1.453045 -1.184429 6.863716 0.000000 0.000003 -0.000000 -2.538838 8.183300 2.130350 -3.765330 1.794983 -2.560689 -0.106751 5.571989 4.501969 -3.826553 1.953257 -2.367214 -0.188568 5.116936 5.010766 -3.879106 2.095529 -2.158680 -0.435960 7.790671 9.244506 0.000002 -0.000001 -0.000007 5.509722 10.360495 6.886543 -0.717994 -0.867243 1.914342 6.990594 8.532063 -6.589812 12.219895 5.120403 14.020150 -0.359547 -15.336527 -19.263227 17.717492 4.201123 -2.013861 3.797054 -24.694466 -10.538302 2.431792 -1.249536 6.511210 0.952134 -3.104210 0.717705 2.685449 -0.860053 0.973765 -0.948881 -3.647716 -0.052441 7.148871 -2.657187 5.079695 -0.395396 -2.742829 -0.711670 0.156142 -0.000205 -0.086401 -0.505009 -3.098588 -0.909406 0.000002 0.000001 0.000000 0.431697 -2.901148 -0.404763 0.000013 0.000001 -0.000005 0.100459 -4.626680 -2.464399 4.822810 -1.745190 2.146869 -1.990766 -3.686246 -1.425289 1.587266 -1.881365 2.841526 -2.096789 -1.736152 -0.037116 1.047710 -1.263015 1.888345 -2.363410 -1.119204 0.529590 0.000003 -0.000002 -0.000000 -0.013581 -2.424382 -1.188119 0.000006 0.000001 -0.000001 -0.292142 -4.089590 -3.086753 0.987717 -1.531735 1.219575 -2.514205 -3.554255 -1.122378 1.163684 -1.372631 1.863875 -2.559381 -1.403352 0.523380 0.770788 -0.919302 1.239406 -2.547568 -0.437211 1.242802 0.000002 0.000001 0.000000 -0.464837 -1.818015 -1.909892 -0.000002 0.000015 -0.000003 -0.870577 -3.411417 -3.394675 1.456314 -1.887866 1.951148 -2.579325 -3.277651 -0.781077 1.477344 -1.551828 1.834666 -2.327357 -1.153640 0.861245 0.979311 -1.039825 1.218582 -2.154610 -0.195054 1.555205 0.000002 -0.000003 0.000001 -0.840448 -1.117706 -2.396431 0.000011 -0.000014 -0.000005 -1.413500 -2.647702 -3.466741 1.212411 -1.791522 1.358244 -2.054653 -2.775942 -1.010502 1.687636 -1.808538 1.685767 -1.815994 -1.289924 0.392680 1.119078 -1.211235 1.117826 -1.900180 -0.771172 1.050135 -0.000000 -0.000001 -0.000000 -0.689043 12.313815 14.611617 12.588397 9.087140 3.623817 -1.145253 7.525701 6.269112 12.192348 8.613127 5.363867 -2.228650 12.906765 7.099280 -0.000006 -0.000000 0.000002 -3.774645 2.883528 12.749820 5.542286 -7.489386 -2.175438 -10.378583 -4.696888 5.942601 58.447104 -7.000750 -13.684610 1.272013 -22.534573 9.848278 13.114071 23.226965 -18.502550 5.473144 -17.273132 20.173664 56.008921 28.996561 39.629256 1.280620 2.109758 2.228606 -0.658438 3.046746 -0.823114 0.340200 0.417572 3.730810 -2.060515 9.442359 -2.114070 -1.167887 -0.218291 2.602742 -3.638124 5.058091 -1.071857 -2.056311 -0.928080 2.365057 0.000003 -0.000074 -0.000006 0.150438 1.624059 2.471149 0.000000 0.000005 0.000009 -1.533347 2.171421 4.519198 1.671143 15.728794 -2.901429 -1.307509 -0.272400 4.218916 6.016229 4.526222 1.937632 -0.079266 -1.111718 2.483938 4.025342 2.995224 1.343961 0.413212 -1.599218 2.095355 0.000003 0.000081 -0.000144 -0.700883 1.071249 2.377073 0.000005 0.000003 0.000005 -2.239313 1.631165 4.320059 2.818864 7.170467 -0.478436 -1.325935 -0.365686 4.280373 4.312065 3.565711 1.516479 -0.043444 -1.217662 2.703517 2.884091 2.364610 1.040493 0.508009 -1.693490 2.258296 0.000001 -0.000010 -0.000007 -1.516529 0.455221 2.159127 0.000009 0.000021 0.000006 -2.660126 0.843760 4.016372 3.930733 5.484457 1.903214 -1.281364 -0.320627 4.032521 4.919909 4.660332 1.751266 -0.139808 -0.939650 2.566459 3.293600 3.090418 1.211334 0.325468 -1.327367 2.287184 0.000017 0.000015 0.000008 -2.120830 -0.146119 1.783021 -0.000003 -0.000009 0.000009 -2.866587 0.038084 3.578777 -9.811270 2.748562 -5.283009 -1.307364 -1.048680 3.184274 -3.412870 -4.153809 -2.878790 -0.067370 -1.194499 1.919529 -2.250866 -2.788389 -1.890709 0.458416 -1.470753 1.713145 -0.000009 -0.000015 -0.000026 
7.552365 84.640915 14.499050 -36.434606 -28.903134 -22.561923 5.621556 2.866458 -4.311308 4.467993 11.174836 0.469490 3.478292 -38.761562 -12.114693 19.669008 3.176044 -11.249083 0.126556 -36.930069 -17.469311 -35.878420 -26.181939 25.936658 4.701181 -12.892831 0.471911 27.046755 -1.938651 -24.217453 5.073776 -2.401294 4.372095 -0.000000 -0.000001 0.000000 -5.621553 -2.866455 4.311302 23.668451 16.209251 -5.997392 7.158325 -38.335075 11.853443 -10.197132 -1.989312 3.173253 0.220285 -39.640995 -9.877588 11.565647 1.843534 9.845394 2.612345 -6.028759 12.057311 5.698592 0.024460 -1.193188 1.453044 -1.184429 6.863708 0.000000 0.000003 -0.000000 -2.538842 8.183297 2.130347 -3.794586 1.776784 -2.507915 -0.106750 5.571979 4.501961 -3.855313 1.929462 -2.316277 -0.188571 5.116952 5.010788 -3.907181 2.066402 -2.110099 -0.435961 7.790690 9.244493 -0.000002 0.000002 -0.000003 5.509720 10.360502 6.886566 -0.664778 -0.921398 1.937694 6.990595 8.532066 -6.589829 12.384554 5.186604 14.101602 -0.359548 -15.336538 -19.263235 17.674110 4.149296 -2.110801 3.797050 -24.694469 -10.538303 2.326804 -1.237809 6.502338 0.952143 -3.104216 0.717711 2.706591 -0.870958 0.996274 -0.948885 -3.647725 -0.052440 7.195691 -2.693265 5.162323 -0.395391 -2.742836 -0.711676 0.130540 -0.000158 -0.072233 -0.505009 -3.098603 -0.909414 0.000002 0.000001 0.000002 0.431710 -2.901137 -0.404767 0.000009 0.000000 -0.000005 0.100458 -4.626680 -2.464408 4.828196 -1.773432 2.213545 -1.990765 -3.686225 -1.425286 1.617361 -1.915242 2.894332 -2.096791 -1.736163 -0.037107 1.067396 -1.285940 1.923334 -2.363413 -1.119202 0.529600 0.000000 -0.000002 0.000003 -0.013569 -2.424380 -1.188118 0.000004 -0.000005 -0.000003 -0.292134 -4.089582 -3.086750 0.993942 -1.572030 1.291822 -2.514204 -3.554258 -1.122376 1.198626 -1.412466 1.919191 -2.559381 -1.403348 0.523380 0.793778 -0.946121 1.276089 -2.547572 -0.437209 1.242799 -0.000001 -0.000002 -0.000000 -0.464826 -1.818007 -1.909897 -0.000003 0.000009 -0.000003 -0.870581 -3.411422 -3.394676 1.469316 -1.927829 2.010288 -2.579321 -3.277651 -0.781085 1.510267 -1.585286 1.875316 -2.327360 -1.153650 0.861239 1.001013 -1.062373 1.245478 -2.154619 -0.195054 1.555201 0.000002 0.000000 -0.000001 -0.840440 -1.117696 -2.396432 0.000007 -0.000018 -0.000005 -1.413505 -2.647694 -3.466729 1.213230 -1.792712 1.359178 -2.054649 -2.775914 -1.010504 1.688279 -1.809204 1.686406 -1.815993 -1.289917 0.392686 1.119510 -1.211693 1.118260 -1.900171 -0.771196 1.050120 0.000003 -0.000003 0.000003 -0.689037 12.313807 14.611630 12.746407 9.261656 3.683211 -1.145249 7.525726 6.269119 12.343009 8.786907 5.438837 -2.228649 12.906764 7.099281 -0.000006 0.000000 0.000001 -3.774643 2.883538 12.749834 5.608318 -7.517635 -2.192603 -10.378586 -4.696879 5.942616 58.301593 -7.023405 -13.647185 1.272013 -22.534540 9.848263 13.010826 23.385767 -18.409423 5.473151 -17.273125 20.173653 56.600043 28.930803 39.380726 1.280623 2.109752 2.228614 -0.658438 3.046744 -0.823119 0.340202 0.417574 3.730795 -2.060517 9.442360 -2.114078 -1.167877 -0.218295 2.602737 -3.638125 5.058088 -1.071858 -2.056317 -0.928085 2.365041 0.000002 -0.000074 -0.000006 0.150448 1.624049 2.471153 -0.000001 0.000003 0.000001 -1.533351 2.171427 4.519200 1.671146 15.728794 -2.901428 -1.307505 -0.272401 4.218893 6.016227 4.526219 1.937631 -0.079265 -1.111727 2.483941 4.025346 2.995224 1.343964 0.413213 -1.599198 2.095343 0.000010 0.000085 -0.000146 -0.700876 1.071245 2.377103 0.000003 0.000002 0.000004 -2.239312 1.631169 4.320071 2.818868 7.170466 -0.478443 -1.325951 -0.365681 4.280365 4.312061 3.565713 1.516482 -0.043445 -1.217671 2.703514 2.884091 2.364610 1.040491 0.508013 -1.693498 2.258303 -0.000005 -0.000009 -0.000009 -1.516523 0.455221 2.159140 0.000006 0.000017 0.000006 -2.660133 0.843750 4.016352 3.930735 5.484457 1.903214 -1.281366 -0.320613 4.032536 4.919910 4.660337 1.751267 -0.139808 -0.939632 2.566452 3.293602 3.090417 1.211338 0.325461 -1.327368 2.287179 0.000021 0.000019 0.000007 -2.120824 -0.146136 1.783005 -0.000001 -0.000013 0.000008 -2.866600 0.038065 3.578784 -9.811271 2.748562 -5.283000 -1.307363 -1.048696 3.184281 -3.412872 -4.153806 -2.878793 -0.067364 -1.194494 1.919509 -2.250865 -2.788394 -1.890706 0.458421 -1.470748 1.713138 -0.000010 -0.000016 -0.000027 
